<svg xmlns="http://www.w3.org/2000/svg" version="1.1" xmlns:xlink="http://www.w3.org/1999/xlink" xmlns:svgjs="http://svgjs.com/svgjs" width="1920" height="1080" preserveAspectRatio="none" viewBox="0 0 1920 1080"><g mask="url(&quot;#SvgjsMask1128&quot;)" fill="none"><rect width="1920" height="1080" x="0" y="0" fill="url(#SvgjsLinearGradient1129)"></rect><path d="M 0,261 C 64,297.4 192,447.6 320,443 C 448,438.4 512,246.8 640,238 C 768,229.2 832,446.6 960,399 C 1088,351.4 1152,17.4 1280,0 C 1408,-17.4 1472,291.6 1600,312 C 1728,332.4 1856,144 1920,102L1920 1080L0 1080z" fill="rgba(194, 128, 68, 1)"></path><path d="M 0,762 C 96,798 288,941.2 480,942 C 672,942.8 768,754.6 960,766 C 1152,777.4 1248,1025.8 1440,999 C 1632,972.2 1824,705.4 1920,632L1920 1080L0 1080z" fill="rgba(171, 67, 34, 1)"></path></g><defs><mask id="SvgjsMask1128"><rect width="1920" height="1080" fill="#ffffff"></rect></mask><linearGradient x1="89.06%" y1="-19.44%" x2="10.94%" y2="119.44%" gradientUnits="userSpaceOnUse" id="SvgjsLinearGradient1129"><stop stop-color="#0e2a47" offset="0"></stop><stop stop-color="rgba(34, 94, 172, 1)" offset="1"></stop></linearGradient></defs></svg>